<svg width="41" height="41" viewBox="0 0 41 41" fill="none" xmlns="http://www.w3.org/2000/svg">
<path id="Vector" d="M33.5 1C31.7761 1 30.1228 1.68482 28.9038 2.90381C27.6848 4.12279 27 5.77609 27 7.5V33.5C27 35.2239 27.6848 36.8772 28.9038 38.0962C30.1228 39.3152 31.7761 40 33.5 40C35.2239 40 36.8772 39.3152 38.0962 38.0962C39.3152 36.8772 40 35.2239 40 33.5C40 31.7761 39.3152 30.1228 38.0962 28.9038C36.8772 27.6848 35.2239 27 33.5 27H7.5C5.77609 27 4.12279 27.6848 2.90381 28.9038C1.68482 30.1228 1 31.7761 1 33.5C1 35.2239 1.68482 36.8772 2.90381 38.0962C4.12279 39.3152 5.77609 40 7.5 40C9.22391 40 10.8772 39.3152 12.0962 38.0962C13.3152 36.8772 14 35.2239 14 33.5V7.5C14 5.77609 13.3152 4.12279 12.0962 2.90381C10.8772 1.68482 9.22391 1 7.5 1C5.77609 1 4.12279 1.68482 2.90381 2.90381C1.68482 4.12279 1 5.77609 1 7.5C1 9.22391 1.68482 10.8772 2.90381 12.0962C4.12279 13.3152 5.77609 14 7.5 14H33.5C35.2239 14 36.8772 13.3152 38.0962 12.0962C39.3152 10.8772 40 9.22391 40 7.5C40 5.77609 39.3152 4.12279 38.0962 2.90381C36.8772 1.68482 35.2239 1 33.5 1Z" stroke="white" stroke-width="2" stroke-linecap="round" stroke-linejoin="round"/>
</svg>
